<?xml version="1.0" encoding="iso-8859-1"?>
<!-- Generator: Adobe Illustrator 21.0.0, SVG Export Plug-In . SVG Version: 6.00 Build 0)  -->
<svg  fill='white'  xmlns="http://www.w3.org/2000/svg" xmlns:xlink="http://www.w3.org/1999/xlink" version="1.1" id="Capa_1" x="0px" y="0px" viewBox="0 0 511.961 511.961" style="enable-background:new 0 0 511.961 511.961;" xml:space="preserve" width="512" height="512">
<g>
	<path d="M508.449,363.081c-4.2-8.101-10.781-14.101-17.68-15.3l-22.2-8.701c-27.301-10.499-48.001-32.098-57.301-58.799   c13.2-3.6,26.1-7.5,38.699-11.7c23.079-7.288,36.63-32.938,28.5-56.7c-7.523-23.823-33.967-36.484-56.699-28.5   c-5.101,1.501-10.201,3.301-15,4.501l0.599-6.301c3.6-42.299-10.499-84.598-39.3-116.1c-28.799-31.5-69.6-49.499-112.2-49.499   s-83.401,17.999-112.2,49.499c-28.801,31.501-42.9,73.801-39.3,116.1l0.599,6.301c-4.799-1.199-9.899-2.999-15-4.501   c-23.737-8.118-49.404,5.399-56.699,28.5c-8.119,23.732,5.394,49.404,28.5,56.7c12.599,4.501,25.8,8.101,39,11.7   c-9.6,26.7-30,48.3-57.001,58.799l-20.4,8.101c-9.901,2.1-16.999,8.699-20.899,17.701c-4.2,9.6-3.001,20.999,3.3,30.599   c4.2,6.301,9.499,12.001,18.2,16.501c12.599,6.899,28.799,10.499,42.599,13.2c5.7,24.899,18.9,35.999,39.3,32.999   c44.7-6.899,49.799-3.6,65.7,8.101c7.2,5.099,16.199,11.699,31.199,19.799c16.201,6.301,34.2,9.901,52.5,9.901   c20.101,0,40.501-4.2,58.2-12.301c3.6-1.8,7.5-4.499,12.001-7.5c18.6-12.599,41.4-28.499,74.099-19.799   c24.251,6.061,40.84-3.87,45.901-31.199c23.699-4.801,53.979-11.7,63.879-35.7C513.248,380.78,512.647,370.879,508.449,363.081z"/>
</g>















</svg>
