<?xml version="1.0" encoding="iso-8859-1"?>
<!-- Generator: Adobe Illustrator 21.0.0, SVG Export Plug-In . SVG Version: 6.00 Build 0)  -->
<svg fill='white' xmlns="http://www.w3.org/2000/svg" xmlns:xlink="http://www.w3.org/1999/xlink" version="1.1" id="Capa_1" x="0px" y="0px" viewBox="0 0 512 512" style="enable-background:new 0 0 512 512;" xml:space="preserve" width="512" height="512">
<g>
	<path d="M256,0C115.3,0,0,115.3,0,256s115.3,256,256,256s256-115.3,256-256S396.7,0,256,0z M384.699,363.399   c-2.399,5.402-8.099,8.701-13.799,8.701c-2.1,0-4.2-0.601-6-1.5c-74.7-34.2-160.201-44.401-240.601-28.2   c-8.099,1.5-15.899-3.6-17.699-12.001c-1.501-8.101,3.9-15.899,11.999-17.401c86.4-17.399,178.5-6.599,258.6,30.3   C384.699,346.899,388.001,355.6,384.699,363.399z M415.901,295c-2.401,5.7-7.8,8.699-13.5,8.699c-2.1,0-4.2-0.3-6.301-1.199   c-88.799-40.8-190.499-52.8-286.5-33.6c-8.101,1.5-15.899-3.9-17.401-12.001c-1.8-8.099,3.6-15.899,11.7-17.699   c102.001-20.101,210.3-7.5,304.801,36C416.201,278.8,419.5,287.5,415.901,295z M433.599,235.6c-2.1,0-4.199-0.3-6.299-1.201   c-102.9-47.399-220.801-61.5-331.8-39.3c-8.101,1.8-15.901-3.6-17.701-11.7c-1.5-8.099,3.9-16.199,12.001-17.699   C206.8,142.299,331.3,157,439.9,207.1c7.5,3.3,10.8,12.299,7.5,19.799C444.699,232.599,439.3,235.6,433.599,235.6z"/>
</g>















</svg>
